<svg xmlns="http://www.w3.org/2000/svg" xmlns:xlink="http://www.w3.org/1999/xlink" width="500" zoomAndPan="magnify" viewBox="0 0 375 374.999991" height="500" preserveAspectRatio="xMidYMid meet" version="1.0"><defs><clipPath id="31e1886239"><path d="M 42.175781 42.175781 L 333 42.175781 L 333 333 L 42.175781 333 Z M 42.175781 42.175781 " clip-rule="nonzero"/></clipPath></defs><path fill="#dff8fc" d="M 324.265625 187.496094 C 324.265625 189.734375 324.210938 191.96875 324.101562 194.207031 C 323.988281 196.441406 323.824219 198.671875 323.605469 200.898438 C 323.386719 203.128906 323.113281 205.347656 322.785156 207.5625 C 322.457031 209.777344 322.074219 211.980469 321.636719 214.175781 C 321.199219 216.371094 320.710938 218.554688 320.164062 220.726562 C 319.621094 222.898438 319.023438 225.054688 318.375 227.195312 C 317.726562 229.339844 317.023438 231.464844 316.269531 233.570312 C 315.515625 235.679688 314.710938 237.765625 313.855469 239.835938 C 312.996094 241.902344 312.089844 243.949219 311.132812 245.972656 C 310.175781 247.996094 309.171875 249.992188 308.113281 251.96875 C 307.058594 253.941406 305.957031 255.886719 304.804688 257.808594 C 303.65625 259.726562 302.457031 261.617188 301.214844 263.480469 C 299.972656 265.339844 298.683594 267.171875 297.347656 268.96875 C 296.015625 270.765625 294.640625 272.53125 293.21875 274.261719 C 291.800781 275.992188 290.335938 277.683594 288.835938 279.34375 C 287.332031 281.003906 285.789062 282.621094 284.207031 284.207031 C 282.621094 285.789062 281.003906 287.332031 279.34375 288.835938 C 277.683594 290.335938 275.992188 291.800781 274.261719 293.21875 C 272.53125 294.640625 270.765625 296.015625 268.96875 297.347656 C 267.171875 298.683594 265.339844 299.972656 263.480469 301.214844 C 261.617188 302.457031 259.726562 303.65625 257.808594 304.804688 C 255.886719 305.957031 253.941406 307.058594 251.96875 308.113281 C 249.992188 309.171875 247.996094 310.175781 245.972656 311.132812 C 243.949219 312.089844 241.902344 312.996094 239.835938 313.855469 C 237.765625 314.710938 235.679688 315.515625 233.570312 316.269531 C 231.464844 317.023438 229.339844 317.726562 227.195312 318.375 C 225.054688 319.023438 222.898438 319.621094 220.726562 320.164062 C 218.554688 320.710938 216.371094 321.199219 214.175781 321.636719 C 211.980469 322.074219 209.777344 322.457031 207.5625 322.785156 C 205.347656 323.113281 203.128906 323.386719 200.898438 323.605469 C 198.671875 323.824219 196.441406 323.988281 194.207031 324.101562 C 191.96875 324.210938 189.734375 324.265625 187.496094 324.265625 C 185.257812 324.265625 183.019531 324.210938 180.785156 324.101562 C 178.546875 323.988281 176.316406 323.824219 174.089844 323.605469 C 171.859375 323.386719 169.640625 323.113281 167.425781 322.785156 C 165.210938 322.457031 163.007812 322.074219 160.8125 321.636719 C 158.617188 321.199219 156.433594 320.710938 154.261719 320.164062 C 152.089844 319.621094 149.933594 319.023438 147.792969 318.375 C 145.648438 317.726562 143.527344 317.023438 141.417969 316.269531 C 139.308594 315.515625 137.222656 314.710938 135.15625 313.855469 C 133.085938 312.996094 131.042969 312.089844 129.019531 311.132812 C 126.996094 310.175781 124.996094 309.171875 123.019531 308.113281 C 121.046875 307.058594 119.101562 305.957031 117.179688 304.804688 C 115.261719 303.65625 113.371094 302.457031 111.507812 301.214844 C 109.648438 299.972656 107.820312 298.683594 106.019531 297.347656 C 104.222656 296.015625 102.457031 294.640625 100.726562 293.21875 C 99 291.800781 97.304688 290.335938 95.644531 288.835938 C 93.988281 287.332031 92.367188 285.789062 90.785156 284.207031 C 89.199219 282.621094 87.65625 281.003906 86.15625 279.34375 C 84.652344 277.683594 83.191406 275.992188 81.769531 274.261719 C 80.351562 272.53125 78.972656 270.765625 77.640625 268.96875 C 76.304688 267.171875 75.019531 265.339844 73.773438 263.480469 C 72.53125 261.617188 71.332031 259.726562 70.183594 257.808594 C 69.03125 255.886719 67.929688 253.941406 66.875 251.96875 C 65.820312 249.992188 64.8125 247.996094 63.855469 245.972656 C 62.898438 243.949219 61.992188 241.902344 61.136719 239.835938 C 60.277344 237.765625 59.472656 235.679688 58.71875 233.570312 C 57.964844 231.464844 57.261719 229.339844 56.613281 227.195312 C 55.964844 225.054688 55.367188 222.898438 54.824219 220.726562 C 54.277344 218.554688 53.789062 216.371094 53.351562 214.175781 C 52.914062 211.980469 52.53125 209.777344 52.203125 207.5625 C 51.875 205.347656 51.601562 203.128906 51.382812 200.898438 C 51.164062 198.671875 51 196.441406 50.890625 194.207031 C 50.777344 191.96875 50.722656 189.734375 50.722656 187.496094 C 50.722656 185.257812 50.777344 183.019531 50.890625 180.785156 C 51 178.546875 51.164062 176.316406 51.382812 174.089844 C 51.601562 171.859375 51.875 169.640625 52.203125 167.425781 C 52.53125 165.210938 52.914062 163.007812 53.351562 160.8125 C 53.789062 158.617188 54.277344 156.433594 54.824219 154.261719 C 55.367188 152.089844 55.964844 149.933594 56.613281 147.792969 C 57.261719 145.648438 57.964844 143.527344 58.71875 141.417969 C 59.472656 139.308594 60.277344 137.222656 61.136719 135.15625 C 61.992188 133.085938 62.898438 131.042969 63.855469 129.019531 C 64.8125 126.996094 65.820312 124.996094 66.875 123.019531 C 67.929688 121.046875 69.03125 119.101562 70.183594 117.179688 C 71.332031 115.261719 72.53125 113.371094 73.773438 111.507812 C 75.019531 109.648438 76.304688 107.820312 77.640625 106.019531 C 78.972656 104.222656 80.351562 102.457031 81.769531 100.726562 C 83.191406 99 84.652344 97.304688 86.15625 95.644531 C 87.65625 93.988281 89.199219 92.367188 90.785156 90.785156 C 92.367188 89.199219 93.988281 87.65625 95.644531 86.15625 C 97.304688 84.652344 99 83.191406 100.726562 81.769531 C 102.457031 80.351562 104.222656 78.972656 106.019531 77.640625 C 107.820312 76.304688 109.648438 75.019531 111.507812 73.773438 C 113.371094 72.53125 115.261719 71.332031 117.179688 70.183594 C 119.101562 69.03125 121.046875 67.929688 123.019531 66.875 C 124.996094 65.820312 126.996094 64.8125 129.019531 63.855469 C 131.042969 62.898438 133.085938 61.992188 135.15625 61.136719 C 137.222656 60.277344 139.308594 59.472656 141.417969 58.71875 C 143.527344 57.964844 145.648438 57.261719 147.792969 56.613281 C 149.933594 55.964844 152.089844 55.367188 154.261719 54.824219 C 156.433594 54.277344 158.617188 53.789062 160.8125 53.351562 C 163.007812 52.914062 165.210938 52.53125 167.425781 52.203125 C 169.640625 51.875 171.859375 51.601562 174.089844 51.382812 C 176.316406 51.164062 178.546875 51 180.785156 50.890625 C 183.019531 50.777344 185.257812 50.722656 187.496094 50.722656 C 189.734375 50.722656 191.96875 50.777344 194.207031 50.890625 C 196.441406 51 198.671875 51.164062 200.898438 51.382812 C 203.128906 51.601562 205.347656 51.875 207.5625 52.203125 C 209.777344 52.53125 211.980469 52.914062 214.175781 53.351562 C 216.371094 53.789062 218.554688 54.277344 220.726562 54.824219 C 222.898438 55.367188 225.054688 55.964844 227.195312 56.613281 C 229.339844 57.261719 231.464844 57.964844 233.570312 58.71875 C 235.679688 59.472656 237.765625 60.277344 239.835938 61.136719 C 241.902344 61.992188 243.949219 62.898438 245.972656 63.855469 C 247.996094 64.8125 249.992188 65.820312 251.96875 66.875 C 253.941406 67.929688 255.886719 69.03125 257.808594 70.183594 C 259.726562 71.332031 261.617188 72.53125 263.480469 73.773438 C 265.339844 75.019531 267.171875 76.304688 268.96875 77.640625 C 270.765625 78.972656 272.53125 80.351562 274.261719 81.769531 C 275.992188 83.191406 277.683594 84.652344 279.34375 86.15625 C 281.003906 87.65625 282.621094 89.199219 284.207031 90.785156 C 285.789062 92.367188 287.332031 93.988281 288.835938 95.644531 C 290.335938 97.304688 291.800781 99 293.21875 100.726562 C 294.640625 102.457031 296.015625 104.222656 297.347656 106.019531 C 298.683594 107.820312 299.972656 109.648438 301.214844 111.507812 C 302.457031 113.371094 303.65625 115.261719 304.804688 117.179688 C 305.957031 119.101562 307.058594 121.046875 308.113281 123.019531 C 309.171875 124.996094 310.175781 126.996094 311.132812 129.019531 C 312.089844 131.042969 312.996094 133.085938 313.855469 135.15625 C 314.710938 137.222656 315.515625 139.308594 316.269531 141.417969 C 317.023438 143.527344 317.726562 145.648438 318.375 147.792969 C 319.023438 149.933594 319.621094 152.089844 320.164062 154.261719 C 320.710938 156.433594 321.199219 158.617188 321.636719 160.8125 C 322.074219 163.007812 322.457031 165.210938 322.785156 167.425781 C 323.113281 169.640625 323.386719 171.859375 323.605469 174.089844 C 323.824219 176.316406 323.988281 178.546875 324.101562 180.785156 C 324.210938 183.019531 324.265625 185.257812 324.265625 187.496094 Z M 324.265625 187.496094 " fill-opacity="1" fill-rule="nonzero"/><path fill="#004aad" d="M 260.621094 224.007812 C 266.570312 229.957031 266.570312 239.609375 260.621094 245.566406 L 249.132812 257.054688 C 239.765625 266.421875 226.074219 270.121094 213.148438 266.605469 C 162.160156 252.703125 122.289062 212.84375 108.382812 161.839844 C 104.878906 149 108.527344 135.265625 117.933594 125.855469 L 129.425781 114.367188 C 135.378906 108.417969 145.03125 108.417969 150.984375 114.367188 L 164.167969 127.554688 C 169.304688 132.691406 170.101562 140.742188 166.074219 146.789062 L 154.257812 164.5 C 166.265625 188.503906 185.8125 208.386719 210.488281 220.730469 L 228.199219 208.917969 C 234.246094 204.886719 242.300781 205.683594 247.433594 210.820312 Z M 260.621094 224.007812 " fill-opacity="1" fill-rule="nonzero"/><path fill="#000000" d="M 253.480469 204.777344 C 245.488281 196.785156 232.863281 195.535156 223.460938 201.804688 L 209.972656 210.796875 C 190.824219 200.175781 174.8125 184.164062 164.191406 165.015625 L 173.183594 151.527344 C 179.453125 142.125 178.203125 129.5 170.210938 121.507812 L 157.027344 108.324219 C 147.730469 99.023438 132.679688 99.027344 123.382812 108.324219 L 111.894531 119.8125 C 100.34375 131.363281 95.839844 148.328125 100.136719 164.085938 C 114.851562 218.035156 157.035156 260.160156 210.902344 274.851562 C 226.746094 279.171875 243.691406 274.578125 255.175781 263.09375 L 266.664062 251.605469 C 275.960938 242.308594 275.960938 227.257812 266.664062 217.960938 Z M 254.578125 239.519531 L 243.085938 251.007812 C 235.863281 258.230469 225.257812 261.046875 215.402344 258.359375 C 167.53125 245.304688 129.6875 207.457031 116.632812 159.585938 C 113.941406 149.734375 116.761719 139.125 123.980469 131.902344 L 135.472656 120.414062 C 138.085938 117.796875 142.324219 117.796875 144.9375 120.414062 L 158.125 133.597656 C 160.371094 135.847656 160.722656 139.398438 158.960938 142.042969 L 147.148438 159.761719 C 145.449219 162.3125 145.242188 165.582031 146.617188 168.324219 C 159.523438 194.140625 180.847656 215.464844 206.664062 228.371094 C 209.40625 229.742188 212.675781 229.542969 215.226562 227.839844 L 232.945312 216.027344 C 235.589844 214.265625 239.140625 214.617188 241.390625 216.867188 L 254.574219 230.050781 C 257.191406 232.667969 257.191406 236.902344 254.578125 239.519531 Z M 254.578125 239.519531 " fill-opacity="1" fill-rule="nonzero"/><g clip-path="url(#31e1886239)"><path fill="#000000" d="M 187.496094 42.175781 C 107.167969 42.175781 42.175781 107.179688 42.175781 187.496094 C 42.175781 267.820312 107.179688 332.8125 187.496094 332.8125 C 267.820312 332.8125 332.8125 267.808594 332.8125 187.496094 C 332.8125 107.167969 267.808594 42.175781 187.496094 42.175781 Z M 187.496094 315.714844 C 116.792969 315.714844 59.273438 258.195312 59.273438 187.496094 C 59.273438 116.792969 116.792969 59.273438 187.496094 59.273438 C 258.195312 59.273438 315.714844 116.792969 315.714844 187.496094 C 315.714844 258.195312 258.195312 315.714844 187.496094 315.714844 Z M 187.496094 315.714844 " fill-opacity="1" fill-rule="nonzero"/></g></svg>