<svg xmlns="http://www.w3.org/2000/svg" xmlns:xlink="http://www.w3.org/1999/xlink" width="500" zoomAndPan="magnify" viewBox="0 0 375 374.999991" height="500" preserveAspectRatio="xMidYMid meet" version="1.0"><defs><clipPath id="84f1b6f80c"><path d="M 106 67 L 276 67 L 276 319.738281 L 106 319.738281 Z M 106 67 " clip-rule="nonzero"/></clipPath><clipPath id="5d5dfa59f1"><path d="M 164.109375 209.03125 L 202.117188 209.03125 L 202.117188 232.15625 L 164.109375 232.15625 Z M 164.109375 209.03125 " clip-rule="nonzero"/></clipPath><clipPath id="940bdcef55"><path d="M 167.851562 209.550781 C 175.125 216.300781 176.324219 220.050781 178.875 222.226562 C 181.5 224.476562 186.300781 226.351562 188.550781 227.175781 C 189.675781 227.550781 190.351562 227.773438 191.175781 227.773438 C 192 227.773438 192.601562 227.699219 193.5 227.175781 C 195.074219 226.273438 197.773438 221.773438 199.199219 221.25 C 199.800781 221.023438 200.25 221.175781 200.699219 221.398438 C 201.226562 221.699219 201.976562 222.449219 202.050781 223.125 C 202.125 223.875 201.375 225.300781 200.699219 225.675781 C 200.101562 225.976562 199.050781 225.976562 198.523438 225.601562 C 197.851562 225.148438 197.25 223.648438 197.398438 222.898438 C 197.550781 222.300781 198.300781 221.550781 198.898438 221.324219 C 199.574219 221.101562 200.625 221.25 201.148438 221.625 C 201.601562 222.074219 202.125 222.898438 202.050781 223.648438 C 201.976562 224.851562 200.324219 226.875 199.050781 228.226562 C 197.550781 229.648438 195.226562 231.074219 193.425781 231.675781 C 191.851562 232.199219 190.5 232.125 188.773438 231.976562 C 186.601562 231.675781 183.898438 231.226562 181.425781 229.726562 C 178.273438 227.773438 174 222.523438 172.125 220.125 C 171.148438 218.925781 171.074219 218.175781 170.175781 217.125 C 168.898438 215.699219 165.449219 213.898438 164.625 212.699219 C 164.25 212.101562 164.175781 211.648438 164.175781 211.199219 C 164.25 210.675781 164.476562 210.074219 164.851562 209.699219 C 165.226562 209.398438 165.824219 209.101562 166.351562 209.101562 C 166.800781 209.101562 167.851562 209.550781 167.851562 209.550781 " clip-rule="nonzero"/></clipPath></defs><g clip-path="url(#84f1b6f80c)"><path fill="#ed1c24" d="M 191.199219 188.171875 C 168.601562 188.171875 150.28125 169.855469 150.28125 147.261719 C 150.28125 124.660156 168.601562 106.34375 191.199219 106.34375 C 213.796875 106.34375 232.117188 124.660156 232.117188 147.261719 C 232.117188 169.855469 213.796875 188.171875 191.199219 188.171875 Z M 264.402344 109.011719 C 240.761719 68.597656 188.832031 55 148.414062 78.636719 C 107.996094 102.277344 94.394531 154.203125 118.035156 194.617188 L 191.21875 319.726562 L 264.402344 194.617188 C 279.265625 169.0625 280.394531 136.351562 264.402344 109.011719 " fill-opacity="1" fill-rule="nonzero"/></g><g clip-path="url(#5d5dfa59f1)"><g clip-path="url(#940bdcef55)"><path fill="#ed1c24" d="M 161.175781 206.101562 L 205.050781 206.101562 L 205.050781 234.976562 L 161.175781 234.976562 Z M 161.175781 206.101562 " fill-opacity="1" fill-rule="nonzero"/></g></g></svg>