<svg xmlns="http://www.w3.org/2000/svg" version="1.1" xmlns:xlink="http://www.w3.org/1999/xlink" viewBox="0 0 9.142719780944134 1.9115849336658866"><g transform="matrix(1,0,0,1,0.32679246683294316,0.43979246683294326)"><g clip-path="url(#SvgjsClipPath1001)"><g clip-path="url(#SvgjsClipPath10008123c62a-4076-454e-98b8-2c4e47feef3b)"><path d=" M 3.6239252056604183 0.021188763971643543 C 3.62392898134634 -0.052914738632917055 3.6839967897215757 -0.11298867044031999 3.758100291556186 -0.11299999999999996 L 4.294848508404732 -0.11299999999999996 C 4.3304375813753655 -0.11300181387186602 4.364569739124915 -0.09886584923818492 4.389736296527008 -0.0737018569729183 C 4.414902853929101 -0.04853786470765169 4.429042297634921 -0.014407148036963066 4.429044111414344 0.02118192493367549 L 4.429044111414344 0.3342730831122516 L 4.250141717207411 0.3342730831122516 L 4.250141717207411 0.666958085069369 C 4.250094576113266 0.6689286076903972 4.249538566230809 0.6708534385122915 4.2485277042469445 0.6725455790892882 L 3.988685295687818 1.1226363458443875 C 3.9800817859239768 1.137545448614796 3.958593528628278 1.144993160962032 3.9370368809528986 1.144993160962032 L 3.6239252056604183 1.144993160962032 L 3.6239252056604183 1.1002453355369026 L 3.8724695234962816 1.1002453355369026 L 3.625539218620885 0.6725729352411605 C 3.62452835663702 0.6708807946641641 3.6239723467545635 0.6689559638422695 3.6239252056604183 0.6669854412212414 L 3.6239252056604183 0.021188763971643543 Z M 3.53446375 1.1002453355369026 L 3.5791978973491934 1.1002453355369026 L 3.5791978973491934 1.1449794828860957 L 3.53446375 1.1449794828860957 L 3.53446375 1.1002453355369026 Z M 4.33960317286783 0.24483898360370548 L 4.33960317286783 0.021202442047579706 C 4.3396031724997375 -0.0034997681761294586 4.319578074523172 -0.023524865814320117 4.294875864467311 -0.02352486576500519 C 4.270173654411451 -0.023524865715690263 4.250148556514841 -0.003499767997544298 4.250148556245379 0.021202442058316257 L 4.250148556245379 0.24483898360370548 Z M 4.160680261546992 0.021202442047579706 C 4.160667549081342 0.005967068512240312 4.1632533009432455 -0.009158886028762761 4.168326305995308 -0.02352486626365885 L 3.7581002915561257 -0.02352486626365885 C 3.7333969747425186 -0.02352486655233893 3.7133699208950253 -0.003500874477334215 3.713366144206933 0.021202442047579706 L 3.713366144206933 0.6250894946288 L 4.160639227319185 0.6250894946288 L 4.160639227319185 0.021188763971643543 Z M 3.988685295687818 0.9437134345235507 L 4.121020680370113 0.7145235941373462 L 3.7530462424977165 0.7145235941373462 L 3.8853816271800112 0.943733951637455 Z" fill="url(#gradient-df0ab9df-1647-49b3-862b-8716cae47602_0)" transform="matrix(1,0,0,1,0,0)" fill-rule="evenodd"></path></g><g clip-path="url(#SvgjsClipPath10008123c62a-4076-454e-98b8-2c4e47feef3b)"><path d=" M 4.071225644924542 0.49088705258122034 L 4.026491497575349 0.49088705258122034 L 4.026491497575349 0.44615974426999516 L 4.071225644924542 0.44615974426999516 L 4.071225644924542 0.49088705258122034 Z M 4.071225644924542 0.15541172313312746 L 3.802841277943287 0.15541172313312746 L 3.802841277943287 0.11063654155612582 L 4.071225644924542 0.11063654155612582 L 4.071225644924542 0.15536384986735097 Z M 4.071225644924542 0.26723683294915845 L 4.026491497575349 0.26723683294915845 L 4.026491497575349 0.22250952463793328 L 4.071225644924542 0.22250952463793328 L 4.071225644924542 0.26723683294915845 Z M 3.981764189264124 0.26723683294915845 L 3.802841277943287 0.26723683294915845 L 3.802841277943287 0.22250952463793328 L 3.981736833112252 0.22250952463793328 L 3.981736833112252 0.26723683294915845 Z M 4.071225644924542 0.37902774757534907 L 3.802841277943287 0.37902774757534907 L 3.802841277943287 0.3342730831122516 L 4.071225644924542 0.3342730831122516 L 4.071225644924542 0.3790003914234768 Z M 3.981736833112252 0.49088705258122034 L 3.802841277943287 0.49088705258122034 L 3.802841277943287 0.44615974426999516 L 3.981736833112252 0.44615974426999516 Z" fill="url(#gradient-df0ab9df-1647-49b3-862b-8716cae47602_1)" transform="matrix(1,0,0,1,0,0)" fill-rule="evenodd"></path></g></g><g><path d=" M 0.42655999999999994 0.3095999999999999 Q 0.5132479999999999 0.3095999999999999 0.5675999999999999 0.34399999999999986 Q 0.621952 0.37839999999999985 0.6474079999999999 0.43756799999999985 Q 0.6728639999999999 0.49673599999999984 0.6728639999999999 0.569664 L 0.6728639999999999 0.9907199999999998 Q 0.6728639999999999 1.0017279999999997 0.6646079999999999 1.0099839999999998 Q 0.6563519999999999 1.0182399999999998 0.6453439999999999 1.0182399999999998 Q 0.63296 1.0182399999999998 0.625392 1.0099839999999998 Q 0.6178239999999999 1.0017279999999997 0.6178239999999999 0.9907199999999998 L 0.6178239999999999 0.5751679999999999 Q 0.6178239999999999 0.5159999999999999 0.597872 0.4678399999999999 Q 0.5779199999999999 0.41967999999999983 0.5345759999999999 0.3907839999999999 Q 0.49123199999999995 0.3618879999999999 0.42105599999999993 0.3618879999999999 Q 0.36051199999999994 0.3618879999999999 0.30272 0.3907839999999999 Q 0.24492799999999998 0.41967999999999983 0.20708799999999997 0.4678399999999999 Q 0.16924799999999998 0.5159999999999999 0.16924799999999998 0.5751679999999999 L 0.16924799999999998 0.9907199999999998 Q 0.16924799999999998 1.0017279999999997 0.16099199999999997 1.0099839999999998 Q 0.15273599999999998 1.0182399999999998 0.141728 1.0182399999999998 Q 0.129344 1.0182399999999998 0.12177599999999998 1.0099839999999998 Q 0.11420799999999999 1.0017279999999997 0.11420799999999999 0.9907199999999998 L 0.11420799999999999 0.3591359999999999 Q 0.11420799999999999 0.3481279999999999 0.12246399999999999 0.33987199999999984 Q 0.13071999999999998 0.3316159999999999 0.141728 0.3316159999999999 Q 0.15411199999999997 0.3316159999999999 0.16168 0.33987199999999984 Q 0.16924799999999998 0.3481279999999999 0.16924799999999998 0.3591359999999999 L 0.16924799999999998 0.49398399999999987 L 0.134848 0.5600319999999999 Q 0.134848 0.5104959999999998 0.16099199999999997 0.46508799999999983 Q 0.18713599999999997 0.41967999999999983 0.22979199999999997 0.38459199999999993 Q 0.27244799999999997 0.3495039999999999 0.32404799999999995 0.32955199999999985 Q 0.375648 0.3095999999999999 0.42655999999999994 0.3095999999999999 M 1.5356455624999998 0.6714879999999999 Q 1.5356455624999998 0.7733119999999998 1.4916135625 0.8551839999999998 Q 1.4475815625 0.9370559999999998 1.3712135625 0.9845279999999998 Q 1.2948455625 1.0319999999999998 1.1971495625 1.0319999999999998 Q 1.1008295625 1.0319999999999998 1.0237735625 0.9845279999999998 Q 0.9467175624999999 0.9370559999999998 0.9019975624999998 0.8551839999999998 Q 0.8572775624999999 0.7733119999999998 0.8572775624999999 0.6714879999999999 Q 0.8572775624999999 0.5682879999999999 0.9019975624999998 0.48641599999999985 Q 0.9467175624999999 0.4045439999999999 1.0237735625 0.35707199999999994 Q 1.1008295625 0.3095999999999999 1.1971495625 0.3095999999999999 Q 1.2948455625 0.3095999999999999 1.3712135625 0.35707199999999994 Q 1.4475815625 0.4045439999999999 1.4916135625 0.48641599999999985 Q 1.5356455624999998 0.5682879999999999 1.5356455624999998 0.6714879999999999 M 1.4806055624999999 0.6714879999999999 Q 1.4806055624999999 0.5820479999999999 1.4441415624999998 0.5125599999999999 Q 1.4076775625 0.4430719999999999 1.3436935625 0.40247999999999984 Q 1.2797095625 0.3618879999999999 1.1971495625 0.3618879999999999 Q 1.1159655625 0.3618879999999999 1.0512935625 0.40247999999999984 Q 0.9866215624999999 0.4430719999999999 0.9494695624999999 0.5125599999999999 Q 0.9123175625 0.5820479999999999 0.9123175625 0.6714879999999999 Q 0.9123175625 0.7595519999999998 0.9494695624999999 0.8290399999999998 Q 0.9866215624999999 0.8985279999999998 1.0512935625 0.9391199999999998 Q 1.1159655625 0.9797119999999998 1.1971495625 0.9797119999999998 Q 1.2797095625 0.9797119999999998 1.3436935625 0.9391199999999998 Q 1.4076775625 0.8985279999999998 1.4441415624999998 0.8290399999999998 Q 1.4806055624999999 0.7595519999999998 1.4806055624999999 0.6714879999999999 M 1.6567127343749999 0.32611199999999985 L 1.9759447343749998 0.32611199999999985 Q 1.9869527343749998 0.32611199999999985 1.9945207343749998 0.3343679999999999 Q 2.0020887343749996 0.34262399999999993 2.0020887343749996 0.3522559999999999 Q 2.0020887343749996 0.3632639999999999 1.9945207343749998 0.37083199999999994 Q 1.9869527343749998 0.37839999999999985 1.9759447343749998 0.37839999999999985 L 1.6567127343749999 0.37839999999999985 Q 1.6470807343749998 0.37839999999999985 1.6388247343749998 0.3701439999999999 Q 1.6305687343749997 0.3618879999999999 1.6305687343749997 0.3522559999999999 Q 1.6305687343749997 0.3412479999999999 1.6388247343749998 0.33367999999999987 Q 1.6470807343749998 0.32611199999999985 1.6567127343749999 0.32611199999999985 M 1.7970647343749997 0.12383999999999995 Q 1.8094487343749999 0.12383999999999995 1.8170167343749999 0.13209599999999988 Q 1.8245847343749997 0.14035199999999992 1.8245847343749997 0.15135999999999994 L 1.8245847343749997 0.8682559999999998 Q 1.8245847343749997 0.9136639999999998 1.8362807343749998 0.9349919999999998 Q 1.8479767343749998 0.9563199999999998 1.8658647343749997 0.9625119999999998 Q 1.8837527343749998 0.9687039999999998 1.9002647343749999 0.9687039999999998 Q 1.9098967343749997 0.9687039999999998 1.9167767343749997 0.9659519999999998 Q 1.9236567343749997 0.9631999999999998 1.9332887343749998 0.9631999999999998 Q 1.942920734375 0.9631999999999998 1.9498007343749997 0.9707679999999999 Q 1.956680734375 0.9783359999999999 1.956680734375 0.9879679999999998 Q 1.956680734375 1.000352 1.9408567343749998 1.0092959999999997 Q 1.9250327343749998 1.0182399999999998 1.901640734375 1.0182399999999998 Q 1.8933847343749997 1.0182399999999998 1.8720567343749999 1.0175519999999998 Q 1.8507287343749999 1.0168639999999998 1.8266487343749997 1.0051679999999998 Q 1.8025687343749999 0.9934719999999998 1.7860567343749998 0.9625119999999998 Q 1.7695447343749997 0.9315519999999998 1.7695447343749997 0.8710079999999998 L 1.7695447343749997 0.15135999999999994 Q 1.7695447343749997 0.14035199999999992 1.7778007343749997 0.13209599999999988 Q 1.7860567343749998 0.12383999999999995 1.7970647343749997 0.12383999999999995 M 2.456133125 1.0319999999999998 Q 2.352933125 1.0319999999999998 2.2738131249999998 0.9879679999999998 Q 2.1946931249999997 0.9439359999999998 2.149285125 0.8634399999999998 Q 2.103877125 0.7829439999999999 2.103877125 0.6742399999999998 Q 2.103877125 0.5586559999999998 2.1485971249999998 0.4774719999999999 Q 2.1933171249999996 0.39628799999999986 2.264181125 0.3529439999999999 Q 2.3350451249999997 0.3095999999999999 2.4148531249999996 0.3095999999999999 Q 2.4726451249999997 0.3095999999999999 2.5276851249999996 0.3281759999999999 Q 2.5827251249999996 0.34675199999999984 2.626069125 0.38596799999999987 Q 2.6694131249999997 0.4251839999999999 2.696245125 0.48366399999999987 Q 2.7230771249999997 0.5421439999999998 2.7258291249999997 0.6233279999999999 Q 2.7258291249999997 0.6343359999999998 2.717573125 0.6432799999999999 Q 2.7093171249999997 0.6522239999999999 2.6983091249999998 0.6522239999999999 L 2.1369011249999996 0.6522239999999999 L 2.128645125 0.5999359999999998 L 2.6831731249999997 0.5999359999999998 L 2.6694131249999997 0.6123199999999999 L 2.6694131249999997 0.5875519999999999 Q 2.6625331249999995 0.5146239999999999 2.623317125 0.46508799999999983 Q 2.5841011249999997 0.4155519999999999 2.5290611249999997 0.3900959999999999 Q 2.4740211249999997 0.36463999999999985 2.4148531249999996 0.36463999999999985 Q 2.3735731249999996 0.36463999999999985 2.328165125 0.3832159999999999 Q 2.282757125 0.4017919999999999 2.244229125 0.4396319999999999 Q 2.205701125 0.4774719999999999 2.181621125 0.5352639999999999 Q 2.157541125 0.5930559999999998 2.157541125 0.6701119999999998 Q 2.157541125 0.7540479999999998 2.191253125 0.8242239999999998 Q 2.2249651249999998 0.8943999999999999 2.291701125 0.9370559999999998 Q 2.358437125 0.9797119999999998 2.456133125 0.9797119999999998 Q 2.5029171249999997 0.9797119999999998 2.5441971249999997 0.9638879999999999 Q 2.5854771249999997 0.9480639999999998 2.618501125 0.9219199999999999 Q 2.651525125 0.8957759999999998 2.672165125 0.8655039999999998 Q 2.6831731249999997 0.8531199999999999 2.6955571249999997 0.8531199999999999 Q 2.7051891249999995 0.8531199999999999 2.7120691249999997 0.8606879999999999 Q 2.718949125 0.8682559999999998 2.718949125 0.8778879999999998 Q 2.718949125 0.8875199999999999 2.713445125 0.8943999999999999 Q 2.6707891249999998 0.9494399999999998 2.6040531249999996 0.9907199999999998 Q 2.5373171249999995 1.0319999999999998 2.456133125 1.0319999999999998 M 2.8716427968750002 0.9081599999999999 Q 2.862010796875 0.8916479999999998 2.862698796875 0.8813279999999999 Q 2.863386796875 0.8710079999999998 2.873018796875 0.8641279999999998 Q 2.879898796875 0.8572479999999998 2.891594796875 0.8579359999999998 Q 2.903290796875 0.8586239999999998 2.911546796875 0.8682559999999998 Q 2.947322796875 0.9191679999999998 3.003050796875 0.9508159999999998 Q 3.058778796875 0.9824639999999998 3.134458796875 0.9824639999999998 Q 3.179866796875 0.9824639999999998 3.221834796875 0.9673279999999999 Q 3.263802796875 0.9521919999999998 3.290634796875 0.9219199999999999 Q 3.3174667968750002 0.8916479999999998 3.3174667968750002 0.8476159999999998 Q 3.3174667968750002 0.8008319999999999 3.291322796875 0.7726239999999999 Q 3.265178796875 0.7444159999999999 3.223898796875 0.7279039999999999 Q 3.182618796875 0.7113919999999998 3.137210796875 0.7003839999999999 Q 3.089050796875 0.6879999999999998 3.045706796875 0.6721759999999999 Q 3.002362796875 0.6563519999999998 2.9693387968750002 0.6322719999999998 Q 2.936314796875 0.6081919999999998 2.917050796875 0.5751679999999999 Q 2.897786796875 0.5421439999999998 2.897786796875 0.49673599999999984 Q 2.897786796875 0.4430719999999999 2.926682796875 0.4004159999999999 Q 2.955578796875 0.35775999999999986 3.007866796875 0.33367999999999987 Q 3.060154796875 0.3095999999999999 3.128954796875 0.3095999999999999 Q 3.161978796875 0.3095999999999999 3.199130796875 0.3178559999999999 Q 3.236282796875 0.32611199999999985 3.273434796875 0.3460639999999999 Q 3.310586796875 0.3660159999999999 3.342234796875 0.4017919999999999 Q 3.353242796875 0.41004799999999986 3.3525547968750002 0.4217439999999999 Q 3.351866796875 0.43343999999999994 3.342234796875 0.4430719999999999 Q 3.333978796875 0.44857599999999986 3.324346796875 0.44857599999999986 Q 3.314714796875 0.44857599999999986 3.307834796875 0.44031999999999993 Q 3.272058796875 0.4004159999999999 3.224586796875 0.38115199999999994 Q 3.177114796875 0.3618879999999999 3.123450796875 0.3618879999999999 Q 3.078042796875 0.3618879999999999 3.038826796875 0.3770239999999999 Q 2.999610796875 0.39215999999999984 2.974842796875 0.4217439999999999 Q 2.950074796875 0.45132799999999984 2.950074796875 0.49673599999999984 Q 2.952826796875 0.5393919999999999 2.979658796875 0.5669119999999999 Q 3.006490796875 0.5944319999999998 3.051210796875 0.6123199999999999 Q 3.095930796875 0.6302079999999999 3.152346796875 0.6453439999999999 Q 3.197754796875 0.6563519999999998 3.236970796875 0.6707999999999998 Q 3.276186796875 0.6852479999999999 3.305770796875 0.7072639999999999 Q 3.335354796875 0.7292799999999999 3.3525547968750002 0.7623039999999999 Q 3.369754796875 0.7953279999999998 3.369754796875 0.8448639999999998 Q 3.369754796875 0.9026559999999998 3.338794796875 0.9446239999999998 Q 3.307834796875 0.9865919999999998 3.2534827968749997 1.0092959999999997 Q 3.199130796875 1.0319999999999998 3.128954796875 1.0319999999999998 Q 3.057402796875 1.0319999999999998 2.991354796875 1.0031039999999998 Q 2.925306796875 0.9742079999999999 2.8716427968750002 0.9081599999999999" fill="#231f20" fill-rule="nonzero"></path></g><g><path d=" M 4.9556246285282475 0.3095999999999999 Q 5.042312628528247 0.3095999999999999 5.096664628528247 0.34399999999999986 Q 5.1510166285282475 0.37839999999999985 5.176472628528247 0.43756799999999985 Q 5.201928628528247 0.49673599999999984 5.201928628528247 0.569664 L 5.201928628528247 0.9907199999999998 Q 5.201928628528247 1.0017279999999997 5.1936726285282475 1.0099839999999998 Q 5.185416628528247 1.0182399999999998 5.174408628528247 1.0182399999999998 Q 5.162024628528247 1.0182399999999998 5.154456628528247 1.0099839999999998 Q 5.146888628528247 1.0017279999999997 5.146888628528247 0.9907199999999998 L 5.146888628528247 0.5751679999999999 Q 5.146888628528247 0.5159999999999999 5.126936628528247 0.4678399999999999 Q 5.106984628528247 0.41967999999999983 5.063640628528248 0.3907839999999999 Q 5.020296628528247 0.3618879999999999 4.950120628528247 0.3618879999999999 Q 4.889576628528247 0.3618879999999999 4.831784628528247 0.3907839999999999 Q 4.773992628528247 0.41967999999999983 4.736152628528247 0.4678399999999999 Q 4.698312628528247 0.5159999999999999 4.698312628528247 0.5751679999999999 L 4.698312628528247 0.9907199999999998 Q 4.698312628528247 1.0017279999999997 4.6900566285282475 1.0099839999999998 Q 4.681800628528247 1.0182399999999998 4.670792628528247 1.0182399999999998 Q 4.658408628528247 1.0182399999999998 4.650840628528247 1.0099839999999998 Q 4.643272628528247 1.0017279999999997 4.643272628528247 0.9907199999999998 L 4.643272628528247 0.3591359999999999 Q 4.643272628528247 0.3481279999999999 4.651528628528247 0.33987199999999984 Q 4.659784628528247 0.3316159999999999 4.670792628528247 0.3316159999999999 Q 4.683176628528247 0.3316159999999999 4.690744628528247 0.33987199999999984 Q 4.698312628528247 0.3481279999999999 4.698312628528247 0.3591359999999999 L 4.698312628528247 0.49398399999999987 L 4.663912628528247 0.5600319999999999 Q 4.663912628528247 0.5104959999999998 4.6900566285282475 0.46508799999999983 Q 4.716200628528247 0.41967999999999983 4.758856628528247 0.38459199999999993 Q 4.801512628528247 0.3495039999999999 4.8531126285282475 0.32955199999999985 Q 4.904712628528247 0.3095999999999999 4.9556246285282475 0.3095999999999999 M 5.9972861910282464 0 Q 6.009670191028247 0 6.017238191028246 0.008256000000000041 Q 6.024806191028246 0.01651199999999986 6.024806191028246 0.027519999999999878 L 6.024806191028246 0.9907199999999998 Q 6.024806191028246 1.0017279999999997 6.016550191028247 1.0099839999999998 Q 6.008294191028247 1.0182399999999998 5.9972861910282464 1.0182399999999998 Q 5.9849021910282465 1.0182399999999998 5.9773341910282465 1.0099839999999998 Q 5.9697661910282465 1.0017279999999997 5.9697661910282465 0.9907199999999998 L 5.9697661910282465 0.7953279999999998 L 5.991782191028247 0.7650559999999998 Q 5.991782191028247 0.8118399999999999 5.970454191028247 0.8593119999999999 Q 5.949126191028247 0.9067839999999998 5.9099101910282466 0.9459999999999998 Q 5.870694191028247 0.9852159999999999 5.818406191028247 1.0086079999999997 Q 5.766118191028247 1.0319999999999998 5.705574191028247 1.0319999999999998 Q 5.614758191028247 1.0319999999999998 5.542518191028247 0.9845279999999998 Q 5.470278191028247 0.9370559999999998 5.428310191028247 0.8551839999999998 Q 5.3863421910282465 0.7733119999999998 5.3863421910282465 0.6701119999999998 Q 5.3863421910282465 0.5669119999999999 5.428310191028247 0.4850399999999999 Q 5.470278191028247 0.40316799999999986 5.542518191028247 0.3563839999999999 Q 5.614758191028247 0.3095999999999999 5.705574191028247 0.3095999999999999 Q 5.7619901910282465 0.3095999999999999 5.813590191028247 0.3309279999999999 Q 5.865190191028247 0.3522559999999999 5.905094191028247 0.3907839999999999 Q 5.944998191028247 0.4293119999999999 5.968390191028247 0.4809119999999999 Q 5.991782191028247 0.5325119999999999 5.991782191028247 0.5930559999999998 L 5.9697661910282465 0.5586559999999998 L 5.9697661910282465 0.027519999999999878 Q 5.9697661910282465 0.01651199999999986 5.9773341910282465 0.008256000000000041 Q 5.9849021910282465 0 5.9972861910282464 0 M 5.708326191028247 0.9797119999999998 Q 5.786758191028246 0.9797119999999998 5.846614191028247 0.9398079999999999 Q 5.906470191028247 0.8999039999999998 5.940870191028247 0.8297279999999998 Q 5.975270191028247 0.7595519999999998 5.975270191028247 0.6701119999999998 Q 5.975270191028247 0.5806719999999999 5.940870191028247 0.5111839999999999 Q 5.906470191028247 0.44169599999999987 5.845926191028247 0.4017919999999999 Q 5.785382191028247 0.3618879999999999 5.708326191028247 0.3618879999999999 Q 5.632646191028247 0.3618879999999999 5.572102191028247 0.4017919999999999 Q 5.5115581910282465 0.44169599999999987 5.4764701910282465 0.5111839999999999 Q 5.4413821910282465 0.5806719999999999 5.4413821910282465 0.6701119999999998 Q 5.4413821910282465 0.7581759999999999 5.4764701910282465 0.8283519999999999 Q 5.5115581910282465 0.8985279999999998 5.572102191028247 0.9391199999999998 Q 5.632646191028247 0.9797119999999998 5.708326191028247 0.9797119999999998 M 6.561444847278247 1.0319999999999998 Q 6.458244847278247 1.0319999999999998 6.379124847278248 0.9879679999999998 Q 6.300004847278247 0.9439359999999998 6.254596847278247 0.8634399999999998 Q 6.209188847278247 0.7829439999999999 6.209188847278247 0.6742399999999998 Q 6.209188847278247 0.5586559999999998 6.253908847278248 0.4774719999999999 Q 6.2986288472782475 0.39628799999999986 6.369492847278247 0.3529439999999999 Q 6.440356847278247 0.3095999999999999 6.520164847278247 0.3095999999999999 Q 6.577956847278247 0.3095999999999999 6.632996847278247 0.3281759999999999 Q 6.688036847278247 0.34675199999999984 6.731380847278247 0.38596799999999987 Q 6.774724847278247 0.4251839999999999 6.801556847278247 0.48366399999999987 Q 6.828388847278247 0.5421439999999998 6.831140847278247 0.6233279999999999 Q 6.831140847278247 0.6343359999999998 6.822884847278247 0.6432799999999999 Q 6.8146288472782475 0.6522239999999999 6.803620847278247 0.6522239999999999 L 6.242212847278247 0.6522239999999999 L 6.233956847278248 0.5999359999999998 L 6.788484847278247 0.5999359999999998 L 6.774724847278247 0.6123199999999999 L 6.774724847278247 0.5875519999999999 Q 6.767844847278247 0.5146239999999999 6.728628847278247 0.46508799999999983 Q 6.6894128472782475 0.4155519999999999 6.6343728472782475 0.3900959999999999 Q 6.5793328472782475 0.36463999999999985 6.520164847278247 0.36463999999999985 Q 6.478884847278247 0.36463999999999985 6.433476847278247 0.3832159999999999 Q 6.388068847278247 0.4017919999999999 6.349540847278247 0.4396319999999999 Q 6.311012847278247 0.4774719999999999 6.286932847278247 0.5352639999999999 Q 6.262852847278247 0.5930559999999998 6.262852847278247 0.6701119999999998 Q 6.262852847278247 0.7540479999999998 6.296564847278248 0.8242239999999998 Q 6.330276847278247 0.8943999999999999 6.397012847278247 0.9370559999999998 Q 6.463748847278247 0.9797119999999998 6.561444847278247 0.9797119999999998 Q 6.608228847278247 0.9797119999999998 6.6495088472782475 0.9638879999999999 Q 6.690788847278247 0.9480639999999998 6.723812847278247 0.9219199999999999 Q 6.756836847278247 0.8957759999999998 6.777476847278248 0.8655039999999998 Q 6.788484847278247 0.8531199999999999 6.800868847278247 0.8531199999999999 Q 6.810500847278247 0.8531199999999999 6.817380847278248 0.8606879999999999 Q 6.824260847278247 0.8682559999999998 6.824260847278247 0.8778879999999998 Q 6.824260847278247 0.8875199999999999 6.818756847278247 0.8943999999999999 Q 6.776100847278247 0.9494399999999998 6.7093648472782474 0.9907199999999998 Q 6.642628847278247 1.0319999999999998 6.561444847278247 1.0319999999999998 M 7.325082519153248 1.0319999999999998 Q 7.221882519153247 1.0319999999999998 7.142762519153248 0.9879679999999998 Q 7.063642519153247 0.9439359999999998 7.018234519153247 0.8634399999999998 Q 6.972826519153247 0.7829439999999999 6.972826519153247 0.6742399999999998 Q 6.972826519153247 0.5586559999999998 7.017546519153248 0.4774719999999999 Q 7.062266519153248 0.39628799999999986 7.133130519153247 0.3529439999999999 Q 7.203994519153247 0.3095999999999999 7.283802519153247 0.3095999999999999 Q 7.341594519153247 0.3095999999999999 7.396634519153247 0.3281759999999999 Q 7.451674519153247 0.34675199999999984 7.4950185191532475 0.38596799999999987 Q 7.538362519153248 0.4251839999999999 7.5651945191532475 0.48366399999999987 Q 7.592026519153247 0.5421439999999998 7.594778519153247 0.6233279999999999 Q 7.594778519153247 0.6343359999999998 7.586522519153247 0.6432799999999999 Q 7.578266519153248 0.6522239999999999 7.567258519153247 0.6522239999999999 L 7.005850519153247 0.6522239999999999 L 6.997594519153248 0.5999359999999998 L 7.552122519153247 0.5999359999999998 L 7.538362519153248 0.6123199999999999 L 7.538362519153248 0.5875519999999999 Q 7.531482519153247 0.5146239999999999 7.492266519153247 0.46508799999999983 Q 7.453050519153248 0.4155519999999999 7.398010519153248 0.3900959999999999 Q 7.342970519153248 0.36463999999999985 7.283802519153247 0.36463999999999985 Q 7.242522519153248 0.36463999999999985 7.1971145191532475 0.3832159999999999 Q 7.151706519153247 0.4017919999999999 7.113178519153247 0.4396319999999999 Q 7.074650519153248 0.4774719999999999 7.050570519153247 0.5352639999999999 Q 7.026490519153247 0.5930559999999998 7.026490519153247 0.6701119999999998 Q 7.026490519153247 0.7540479999999998 7.060202519153248 0.8242239999999998 Q 7.093914519153247 0.8943999999999999 7.160650519153247 0.9370559999999998 Q 7.227386519153248 0.9797119999999998 7.325082519153248 0.9797119999999998 Q 7.371866519153247 0.9797119999999998 7.413146519153248 0.9638879999999999 Q 7.454426519153247 0.9480639999999998 7.487450519153247 0.9219199999999999 Q 7.520474519153248 0.8957759999999998 7.541114519153247 0.8655039999999998 Q 7.552122519153247 0.8531199999999999 7.564506519153247 0.8531199999999999 Q 7.574138519153247 0.8531199999999999 7.581018519153247 0.8606879999999999 Q 7.5878985191532475 0.8682559999999998 7.5878985191532475 0.8778879999999998 Q 7.5878985191532475 0.8875199999999999 7.582394519153247 0.8943999999999999 Q 7.539738519153247 0.9494399999999998 7.473002519153248 0.9907199999999998 Q 7.406266519153247 1.0319999999999998 7.325082519153248 1.0319999999999998 M 8.347408191028247 0 Q 8.359792191028248 0 8.367360191028247 0.008256000000000041 Q 8.374928191028248 0.01651199999999986 8.374928191028248 0.027519999999999878 L 8.374928191028248 0.9907199999999998 Q 8.374928191028248 1.0017279999999997 8.366672191028247 1.0099839999999998 Q 8.358416191028248 1.0182399999999998 8.347408191028247 1.0182399999999998 Q 8.335024191028248 1.0182399999999998 8.327456191028247 1.0099839999999998 Q 8.319888191028248 1.0017279999999997 8.319888191028248 0.9907199999999998 L 8.319888191028248 0.7953279999999998 L 8.341904191028247 0.7650559999999998 Q 8.341904191028247 0.8118399999999999 8.320576191028248 0.8593119999999999 Q 8.299248191028248 0.9067839999999998 8.260032191028248 0.9459999999999998 Q 8.220816191028248 0.9852159999999999 8.168528191028248 1.0086079999999997 Q 8.116240191028247 1.0319999999999998 8.055696191028247 1.0319999999999998 Q 7.964880191028247 1.0319999999999998 7.8926401910282475 0.9845279999999998 Q 7.820400191028248 0.9370559999999998 7.778432191028248 0.8551839999999998 Q 7.736464191028247 0.7733119999999998 7.736464191028247 0.6701119999999998 Q 7.736464191028247 0.5669119999999999 7.778432191028248 0.4850399999999999 Q 7.820400191028248 0.40316799999999986 7.8926401910282475 0.3563839999999999 Q 7.964880191028247 0.3095999999999999 8.055696191028247 0.3095999999999999 Q 8.112112191028247 0.3095999999999999 8.163712191028248 0.3309279999999999 Q 8.215312191028248 0.3522559999999999 8.255216191028248 0.3907839999999999 Q 8.295120191028248 0.4293119999999999 8.318512191028248 0.4809119999999999 Q 8.341904191028247 0.5325119999999999 8.341904191028247 0.5930559999999998 L 8.319888191028248 0.5586559999999998 L 8.319888191028248 0.027519999999999878 Q 8.319888191028248 0.01651199999999986 8.327456191028247 0.008256000000000041 Q 8.335024191028248 0 8.347408191028247 0 M 8.058448191028248 0.9797119999999998 Q 8.136880191028247 0.9797119999999998 8.196736191028247 0.9398079999999999 Q 8.256592191028247 0.8999039999999998 8.290992191028248 0.8297279999999998 Q 8.325392191028248 0.7595519999999998 8.325392191028248 0.6701119999999998 Q 8.325392191028248 0.5806719999999999 8.290992191028248 0.5111839999999999 Q 8.256592191028247 0.44169599999999987 8.196048191028247 0.4017919999999999 Q 8.135504191028248 0.3618879999999999 8.058448191028248 0.3618879999999999 Q 7.9827681910282475 0.3618879999999999 7.922224191028247 0.4017919999999999 Q 7.861680191028247 0.44169599999999987 7.826592191028247 0.5111839999999999 Q 7.791504191028247 0.5806719999999999 7.791504191028247 0.6701119999999998 Q 7.791504191028247 0.7581759999999999 7.826592191028247 0.8283519999999999 Q 7.861680191028247 0.8985279999999998 7.922224191028247 0.9391199999999998 Q 7.9827681910282475 0.9797119999999998 8.058448191028248 0.9797119999999998" fill="#231f20" fill-rule="nonzero"></path></g><g></g></g><defs><clipPath id="SvgjsClipPath1001"><path d=" M 3.53446375 -0.11299999999999999 h 0.8946008785282477 v 1.258 h -0.8946008785282477 Z"></path></clipPath><clipPath id="SvgjsClipPath10008123c62a-4076-454e-98b8-2c4e47feef3b"><path d=" M 3.53446375 -0.11299999999999999 L 4.429064628528248 -0.11299999999999999 L 4.429064628528248 1.145 L 3.53446375 1.145 Z"></path></clipPath><linearGradient id="gradient-df0ab9df-1647-49b3-862b-8716cae47602_0" x1="0" x2="1" y1="0" y2="1"><stop stop-color="#3361e1" offset="0"></stop><stop stop-color="#000000" offset="1"></stop></linearGradient><linearGradient id="gradient-df0ab9df-1647-49b3-862b-8716cae47602_1" x1="0" x2="1" y1="0" y2="1"><stop stop-color="#2649ab" offset="0"></stop><stop stop-color="#172c67" offset="1"></stop></linearGradient></defs></svg>