<svg xmlns="http://www.w3.org/2000/svg" xmlns:xlink="http://www.w3.org/1999/xlink" width="500" zoomAndPan="magnify" viewBox="0 0 375 374.999991" height="500" preserveAspectRatio="xMidYMid meet" version="1.0"><defs><clipPath id="fadc95efd9"><path d="M 37.5 74.046875 L 337.5 74.046875 L 337.5 301 L 37.5 301 Z M 37.5 74.046875 " clip-rule="nonzero"/></clipPath><clipPath id="7898885b5e"><path d="M 37.5 109 L 337.5 109 L 337.5 211 L 37.5 211 Z M 37.5 109 " clip-rule="nonzero"/></clipPath></defs><path fill="#ffce71" d="M 313.65625 298.003906 L 61.40625 298.003906 C 50.066406 298.003906 40.871094 288.8125 40.871094 277.472656 L 40.871094 97.511719 C 40.871094 86.171875 50.066406 76.980469 61.40625 76.980469 L 313.65625 76.980469 C 324.996094 76.980469 334.1875 86.171875 334.1875 97.511719 L 334.1875 277.472656 C 334.1875 288.8125 324.996094 298.003906 313.65625 298.003906 Z M 313.65625 298.003906 " fill-opacity="1" fill-rule="nonzero"/><g clip-path="url(#fadc95efd9)"><path fill="#353333" d="M 313.65625 300.9375 L 61.40625 300.9375 C 48.464844 300.9375 37.941406 290.410156 37.941406 277.472656 L 37.941406 97.511719 C 37.941406 84.570312 48.464844 74.046875 61.40625 74.046875 L 313.65625 74.046875 C 326.59375 74.046875 337.121094 84.570312 337.121094 97.511719 L 337.121094 277.472656 C 337.121094 290.410156 326.59375 300.9375 313.65625 300.9375 Z M 61.40625 79.910156 C 51.699219 79.910156 43.804688 87.804688 43.804688 97.511719 L 43.804688 277.472656 C 43.804688 287.179688 51.699219 295.070312 61.40625 295.070312 L 313.65625 295.070312 C 323.359375 295.070312 331.253906 287.179688 331.253906 277.472656 L 331.253906 97.511719 C 331.253906 87.804688 323.359375 79.910156 313.65625 79.910156 Z M 61.40625 79.910156 " fill-opacity="1" fill-rule="nonzero"/></g><g clip-path="url(#7898885b5e)"><path fill="#353333" d="M 187.53125 210.703125 C 183.570312 210.703125 179.613281 209.539062 176.160156 207.214844 L 39.234375 114.988281 C 37.890625 114.082031 37.535156 112.257812 38.441406 110.914062 C 39.347656 109.574219 41.167969 109.214844 42.511719 110.121094 L 179.433594 202.347656 C 184.351562 205.660156 190.703125 205.660156 195.625 202.347656 L 332.546875 110.121094 C 333.894531 109.214844 335.714844 109.574219 336.621094 110.914062 C 337.523438 112.257812 337.167969 114.082031 335.824219 114.988281 L 198.898438 207.214844 C 195.445312 209.539062 191.488281 210.703125 187.53125 210.703125 Z M 187.53125 210.703125 " fill-opacity="1" fill-rule="nonzero"/></g><path fill="#353333" d="M 61.402344 300.9375 C 60.695312 300.9375 59.984375 300.683594 59.417969 300.164062 C 58.226562 299.066406 58.148438 297.210938 59.246094 296.019531 L 156.738281 190.0625 C 157.835938 188.871094 159.6875 188.792969 160.882812 189.890625 C 162.074219 190.988281 162.152344 192.84375 161.054688 194.035156 L 63.5625 299.992188 C 62.984375 300.621094 62.195312 300.9375 61.402344 300.9375 Z M 61.402344 300.9375 " fill-opacity="1" fill-rule="nonzero"/><path fill="#353333" d="M 313.65625 300.9375 C 312.863281 300.9375 312.074219 300.621094 311.496094 299.992188 L 214.003906 194.035156 C 212.90625 192.84375 212.984375 190.988281 214.175781 189.890625 C 215.371094 188.792969 217.226562 188.871094 218.320312 190.0625 L 315.8125 296.019531 C 316.910156 297.210938 316.832031 299.066406 315.640625 300.164062 C 315.078125 300.683594 314.367188 300.9375 313.65625 300.9375 Z M 313.65625 300.9375 " fill-opacity="1" fill-rule="nonzero"/></svg>