<svg xmlns="http://www.w3.org/2000/svg" xmlns:xlink="http://www.w3.org/1999/xlink" width="500" zoomAndPan="magnify" viewBox="0 0 375 374.999991" height="500" preserveAspectRatio="xMidYMid meet" version="1.0"><defs><g/><clipPath id="fb157424cd"><path d="M 42 45.328125 L 324 45.328125 L 324 337.828125 L 42 337.828125 Z M 42 45.328125 " clip-rule="nonzero"/></clipPath></defs><g clip-path="url(#fb157424cd)"><path fill="#000000" d="M 319.652344 314.367188 L 249.632812 247.042969 C 270.429688 224.773438 281.824219 195.894531 281.824219 165.253906 C 281.824219 134.617188 269.347656 103.113281 246.730469 80.453125 C 224.089844 57.796875 193.996094 45.328125 162 45.328125 C 130 45.328125 99.90625 57.796875 77.269531 80.453125 C 54.628906 103.113281 42.171875 133.230469 42.171875 165.253906 C 42.171875 197.28125 54.628906 227.398438 77.269531 250.058594 C 99.90625 272.714844 130 285.183594 162 285.183594 C 186.132812 285.183594 209.164062 278.09375 228.746094 264.886719 L 300.71875 334.078125 C 303.273438 336.527344 306.632812 337.894531 310.183594 337.894531 C 313.738281 337.894531 317.484375 336.355469 320.042969 333.6875 C 325.265625 328.246094 325.089844 319.570312 319.652344 314.347656 Z M 214.644531 243.984375 C 199.585938 254.089844 181.496094 259.988281 162 259.988281 C 109.722656 259.988281 67.367188 217.578125 67.367188 165.277344 C 67.367188 112.980469 109.722656 70.546875 162 70.546875 C 214.277344 70.546875 256.628906 112.957031 256.628906 165.253906 C 256.628906 191.1875 246.210938 214.691406 229.332031 231.800781 C 224.871094 236.332031 219.929688 240.429688 214.621094 243.984375 Z M 214.644531 243.984375 " fill-opacity="1" fill-rule="nonzero"/></g><g fill="#000000" fill-opacity="1"><g transform="translate(251.67617, 276.643928)"><g><path d="M 7.515625 3.5 L 7.515625 -1.21875 L 7.34375 -1.25 C 7.007812 -0.757812 6.597656 -0.398438 6.109375 -0.171875 C 5.628906 0.0546875 5.078125 0.171875 4.453125 0.171875 C 3.765625 0.171875 3.15625 0.00390625 2.625 -0.328125 C 2.101562 -0.660156 1.691406 -1.15625 1.390625 -1.8125 C 1.097656 -2.46875 0.953125 -3.28125 0.953125 -4.25 C 0.953125 -5.25 1.109375 -6.085938 1.421875 -6.765625 C 1.734375 -7.441406 2.160156 -7.945312 2.703125 -8.28125 C 3.253906 -8.613281 3.894531 -8.78125 4.625 -8.78125 C 5.195312 -8.78125 5.710938 -8.671875 6.171875 -8.453125 C 6.628906 -8.242188 7.019531 -7.890625 7.34375 -7.390625 L 7.515625 -7.421875 L 7.515625 -8.625 L 8.78125 -8.625 L 8.78125 3.5 Z M 4.875 -0.984375 C 5.394531 -0.984375 5.851562 -1.097656 6.25 -1.328125 C 6.644531 -1.554688 6.953125 -1.914062 7.171875 -2.40625 C 7.398438 -2.894531 7.515625 -3.507812 7.515625 -4.25 C 7.515625 -5.394531 7.273438 -6.242188 6.796875 -6.796875 C 6.316406 -7.359375 5.675781 -7.640625 4.875 -7.640625 C 3.144531 -7.640625 2.28125 -6.507812 2.28125 -4.25 C 2.28125 -3.125 2.503906 -2.296875 2.953125 -1.765625 C 3.410156 -1.242188 4.050781 -0.984375 4.875 -0.984375 Z M 4.875 -0.984375 "/></g></g></g></svg>