<svg xmlns="http://www.w3.org/2000/svg" xmlns:xlink="http://www.w3.org/1999/xlink" width="300" zoomAndPan="magnify" viewBox="0 0 224.87999 74.999997" height="100" preserveAspectRatio="xMidYMid meet" version="1.0"><defs><clipPath id="0cddb8f75f"><path d="M 19.742188 11.714844 L 76.933594 11.714844 L 76.933594 62 L 19.742188 62 Z M 19.742188 11.714844 " clip-rule="nonzero"/></clipPath></defs><g clip-path="url(#0cddb8f75f)"><path fill="#000000" d="M 76.933594 44.390625 L 76.933594 54 C 76.929688 54.523438 76.882812 55.046875 76.777344 55.558594 C 76.675781 56.074219 76.523438 56.574219 76.320312 57.058594 C 76.117188 57.542969 75.875 58.007812 75.582031 58.441406 C 75.289062 58.878906 74.957031 59.28125 74.589844 59.652344 C 74.21875 60.027344 73.816406 60.355469 73.375 60.648438 C 72.941406 60.941406 72.484375 61.1875 71.996094 61.386719 C 71.511719 61.589844 71.011719 61.742188 70.5 61.84375 C 69.984375 61.949219 69.464844 61.996094 68.9375 62 L 27.730469 62 C 27.207031 61.996094 26.683594 61.949219 26.171875 61.84375 C 25.660156 61.742188 25.160156 61.589844 24.675781 61.386719 C 24.1875 61.1875 23.726562 60.941406 23.292969 60.648438 C 22.855469 60.355469 22.453125 60.027344 22.082031 59.652344 C 21.714844 59.28125 21.378906 58.878906 21.089844 58.441406 C 20.796875 58.007812 20.550781 57.542969 20.351562 57.058594 C 20.148438 56.574219 19.996094 56.074219 19.894531 55.558594 C 19.789062 55.046875 19.742188 54.523438 19.742188 54 L 19.742188 44.390625 C 19.742188 44.0625 19.804688 43.746094 19.925781 43.445312 C 20.054688 43.144531 20.234375 42.875 20.460938 42.644531 C 20.691406 42.410156 20.960938 42.238281 21.261719 42.109375 C 21.5625 41.984375 21.878906 41.921875 22.203125 41.921875 C 22.53125 41.921875 22.847656 41.984375 23.148438 42.109375 C 23.453125 42.238281 23.71875 42.410156 23.949219 42.644531 C 24.179688 42.875 24.359375 43.144531 24.480469 43.445312 C 24.609375 43.746094 24.671875 44.0625 24.671875 44.390625 L 24.671875 53.5625 C 24.671875 54.027344 24.761719 54.476562 24.9375 54.90625 C 25.117188 55.328125 25.367188 55.710938 25.695312 56.035156 C 26.023438 56.363281 26.402344 56.617188 26.824219 56.792969 C 27.253906 56.972656 27.703125 57.058594 28.160156 57.058594 L 68.511719 57.058594 C 68.96875 57.058594 69.417969 56.972656 69.847656 56.792969 C 70.269531 56.617188 70.652344 56.363281 70.976562 56.035156 C 71.304688 55.710938 71.558594 55.328125 71.734375 54.90625 C 71.914062 54.476562 72 54.027344 72 53.5625 L 72 44.390625 C 72 44.0625 72.0625 43.746094 72.191406 43.445312 C 72.3125 43.144531 72.492188 42.875 72.722656 42.644531 C 72.957031 42.417969 73.21875 42.238281 73.519531 42.109375 C 73.824219 41.988281 74.140625 41.921875 74.46875 41.921875 C 74.792969 41.921875 75.105469 41.988281 75.410156 42.109375 C 75.710938 42.238281 75.980469 42.417969 76.210938 42.644531 C 76.4375 42.875 76.617188 43.144531 76.746094 43.445312 C 76.867188 43.746094 76.933594 44.0625 76.933594 44.390625 Z M 40.402344 26.820312 L 45.09375 22.121094 C 45.246094 21.96875 45.425781 21.933594 45.625 22.015625 C 45.832031 22.097656 45.933594 22.253906 45.933594 22.472656 L 45.933594 45.714844 C 45.933594 46.042969 45.996094 46.359375 46.121094 46.660156 C 46.242188 46.964844 46.421875 47.230469 46.65625 47.460938 C 46.882812 47.691406 47.152344 47.871094 47.453125 47.996094 C 47.753906 48.121094 48.070312 48.183594 48.398438 48.183594 C 48.722656 48.183594 49.039062 48.121094 49.339844 47.996094 C 49.644531 47.871094 49.910156 47.691406 50.144531 47.460938 C 50.371094 47.230469 50.550781 46.964844 50.675781 46.660156 C 50.800781 46.359375 50.859375 46.042969 50.859375 45.714844 L 50.859375 22.59375 C 50.859375 22.375 50.960938 22.222656 51.167969 22.140625 C 51.371094 22.054688 51.546875 22.09375 51.707031 22.25 L 56.269531 26.820312 C 56.507812 27.046875 56.773438 27.21875 57.078125 27.339844 C 57.378906 27.460938 57.691406 27.523438 58.015625 27.523438 C 58.339844 27.523438 58.652344 27.460938 58.957031 27.339844 C 59.253906 27.21875 59.527344 27.046875 59.757812 26.820312 C 59.988281 26.589844 60.164062 26.324219 60.292969 26.019531 C 60.414062 25.71875 60.480469 25.402344 60.480469 25.078125 C 60.480469 24.75 60.414062 24.433594 60.292969 24.132812 C 60.164062 23.828125 59.988281 23.5625 59.757812 23.332031 L 48.339844 11.894531 L 36.914062 23.332031 C 36.679688 23.5625 36.507812 23.828125 36.378906 24.132812 C 36.257812 24.433594 36.195312 24.75 36.195312 25.078125 C 36.195312 25.402344 36.257812 25.71875 36.378906 26.019531 C 36.507812 26.324219 36.679688 26.589844 36.914062 26.820312 C 37.148438 27.046875 37.417969 27.21875 37.714844 27.339844 C 38.015625 27.460938 38.332031 27.523438 38.65625 27.523438 C 38.980469 27.523438 39.292969 27.460938 39.59375 27.339844 C 39.898438 27.21875 40.164062 27.046875 40.402344 26.820312 Z M 40.402344 26.820312 " fill-opacity="1" fill-rule="nonzero"/></g><path fill="#000000" d="M 110.046875 22.609375 L 110.046875 41.726562 C 110.03125 44.378906 109.195312 46.554688 107.539062 48.242188 C 105.894531 49.925781 103.648438 50.871094 100.8125 51.082031 L 99.832031 51.117188 C 96.753906 51.117188 94.300781 50.289062 92.472656 48.628906 C 90.648438 46.972656 89.71875 44.683594 89.683594 41.761719 L 89.683594 22.609375 L 93.363281 22.609375 L 93.363281 41.65625 C 93.363281 43.6875 93.925781 45.273438 95.046875 46.402344 C 96.167969 47.527344 97.761719 48.085938 99.832031 48.085938 C 101.933594 48.085938 103.535156 47.527344 104.648438 46.402344 C 105.769531 45.28125 106.332031 43.707031 106.332031 41.671875 L 106.332031 22.609375 Z M 110.046875 22.609375 " fill-opacity="1" fill-rule="nonzero"/><path fill="#000000" d="M 132.996094 40.515625 C 132.996094 43.695312 132.265625 46.257812 130.808594 48.207031 C 129.359375 50.148438 127.390625 51.117188 124.902344 51.117188 C 122.367188 51.117188 120.367188 50.3125 118.910156 48.699219 L 118.910156 58.773438 L 115.335938 58.773438 L 115.335938 29.828125 L 118.613281 29.828125 L 118.789062 32.140625 C 120.234375 30.34375 122.257812 29.441406 124.851562 29.441406 C 127.359375 29.441406 129.34375 30.390625 130.808594 32.28125 C 132.265625 34.175781 132.996094 36.8125 132.996094 40.183594 Z M 129.421875 40.113281 C 129.421875 37.757812 128.917969 35.890625 127.917969 34.523438 C 126.910156 33.15625 125.535156 32.472656 123.78125 32.472656 C 121.617188 32.472656 119.996094 33.433594 118.910156 35.347656 L 118.910156 45.335938 C 119.984375 47.253906 121.617188 48.207031 123.816406 48.207031 C 125.535156 48.207031 126.890625 47.535156 127.898438 46.175781 C 128.914062 44.808594 129.421875 42.789062 129.421875 40.113281 Z M 129.421875 40.113281 " fill-opacity="1" fill-rule="nonzero"/><path fill="#000000" d="M 137.84375 21.050781 L 141.417969 21.050781 L 141.417969 50.730469 L 137.84375 50.730469 Z M 137.84375 21.050781 " fill-opacity="1" fill-rule="nonzero"/><path fill="#000000" d="M 146.183594 40.097656 C 146.183594 38.042969 146.585938 36.199219 147.390625 34.558594 C 148.199219 32.925781 149.320312 31.664062 150.753906 30.773438 C 152.191406 29.890625 153.832031 29.441406 155.679688 29.441406 C 158.519531 29.441406 160.8125 30.433594 162.566406 32.402344 C 164.328125 34.367188 165.210938 36.984375 165.210938 40.253906 L 165.210938 40.515625 C 165.210938 42.550781 164.816406 44.378906 164.039062 46 C 163.265625 47.613281 162.152344 48.871094 160.707031 49.769531 C 159.257812 50.671875 157.59375 51.117188 155.714844 51.117188 C 152.875 51.117188 150.570312 50.136719 148.8125 48.175781 C 147.058594 46.203125 146.183594 43.59375 146.183594 40.339844 Z M 149.773438 40.515625 C 149.773438 42.828125 150.308594 44.695312 151.386719 46.105469 C 152.472656 47.507812 153.914062 48.207031 155.714844 48.207031 C 157.523438 48.207031 158.960938 47.5 160.023438 46.070312 C 161.097656 44.648438 161.636719 42.65625 161.636719 40.097656 C 161.636719 37.796875 161.09375 35.9375 160.007812 34.523438 C 158.921875 33.101562 157.476562 32.386719 155.679688 32.386719 C 153.914062 32.386719 152.492188 33.085938 151.402344 34.488281 C 150.316406 35.890625 149.773438 37.902344 149.773438 40.515625 Z M 149.773438 40.515625 " fill-opacity="1" fill-rule="nonzero"/><path fill="#000000" d="M 182.601562 50.730469 C 182.390625 50.324219 182.222656 49.589844 182.09375 48.523438 C 180.433594 50.253906 178.453125 51.117188 176.15625 51.117188 C 174.085938 51.117188 172.390625 50.535156 171.074219 49.367188 C 169.75 48.199219 169.09375 46.71875 169.09375 44.933594 C 169.09375 42.757812 169.921875 41.074219 171.582031 39.867188 C 173.238281 38.667969 175.5625 38.0625 178.554688 38.0625 L 182.042969 38.0625 L 182.042969 36.417969 C 182.042969 35.167969 181.664062 34.175781 180.921875 33.4375 C 180.171875 32.691406 179.066406 32.316406 177.609375 32.316406 C 176.335938 32.316406 175.265625 32.644531 174.402344 33.296875 C 173.546875 33.941406 173.125 34.71875 173.125 35.628906 L 169.511719 35.628906 C 169.511719 34.589844 169.882812 33.585938 170.617188 32.613281 C 171.363281 31.632812 172.371094 30.863281 173.632812 30.300781 C 174.902344 29.730469 176.304688 29.441406 177.835938 29.441406 C 180.242188 29.441406 182.121094 30.046875 183.480469 31.246094 C 184.84375 32.453125 185.554688 34.113281 185.617188 36.222656 L 185.617188 45.84375 C 185.617188 47.761719 185.863281 49.285156 186.351562 50.417969 L 186.351562 50.730469 Z M 176.664062 48.015625 C 177.785156 48.015625 178.84375 47.726562 179.851562 47.140625 C 180.855469 46.558594 181.585938 45.804688 182.042969 44.878906 L 182.042969 40.585938 L 179.238281 40.585938 C 174.859375 40.585938 172.667969 41.875 172.667969 44.441406 C 172.667969 45.554688 173.039062 46.429688 173.789062 47.070312 C 174.535156 47.699219 175.492188 48.015625 176.664062 48.015625 Z M 176.664062 48.015625 " fill-opacity="1" fill-rule="nonzero"/><path fill="#000000" d="M 190.347656 40.113281 C 190.347656 36.902344 191.105469 34.324219 192.625 32.367188 C 194.140625 30.417969 196.132812 29.441406 198.601562 29.441406 C 201.039062 29.441406 202.972656 30.28125 204.398438 31.949219 L 204.398438 21.050781 L 207.972656 21.050781 L 207.972656 50.730469 L 204.699219 50.730469 L 204.523438 48.488281 C 203.09375 50.242188 201.105469 51.117188 198.546875 51.117188 C 196.128906 51.117188 194.152344 50.128906 192.625 48.140625 C 191.105469 46.15625 190.347656 43.566406 190.347656 40.375 Z M 193.921875 40.515625 C 193.921875 42.890625 194.402344 44.75 195.375 46.089844 C 196.355469 47.421875 197.710938 48.085938 199.441406 48.085938 C 201.707031 48.085938 203.355469 47.070312 204.398438 45.039062 L 204.398438 35.433594 C 203.335938 33.464844 201.691406 32.472656 199.476562 32.472656 C 197.722656 32.472656 196.355469 33.152344 195.375 34.507812 C 194.402344 35.863281 193.921875 37.867188 193.921875 40.515625 Z M 193.921875 40.515625 " fill-opacity="1" fill-rule="nonzero"/></svg>