<svg xmlns="http://www.w3.org/2000/svg" xmlns:xlink="http://www.w3.org/1999/xlink" width="500" zoomAndPan="magnify" viewBox="0 0 375 374.999991" height="500" preserveAspectRatio="xMidYMid meet" version="1.0"><defs><clipPath id="950a287dc5"><path d="M 84.933594 85.546875 L 290.433594 85.546875 L 290.433594 289.546875 L 84.933594 289.546875 Z M 84.933594 85.546875 " clip-rule="nonzero"/></clipPath><clipPath id="f67e66edaf"><path d="M 84.933594 123.046875 L 84.933594 251.953125 C 84.933594 272.664062 101.722656 289.453125 122.433594 289.453125 L 252.566406 289.453125 C 273.277344 289.453125 290.066406 272.664062 290.066406 251.953125 L 290.066406 123.046875 C 290.066406 102.335938 273.277344 85.546875 252.566406 85.546875 L 122.433594 85.546875 C 101.722656 85.546875 84.933594 102.335938 84.933594 123.046875 Z M 84.933594 123.046875 " clip-rule="nonzero"/></clipPath><clipPath id="3e03ead2ff"><path d="M 99 223 L 149 223 L 149 270 L 99 270 Z M 99 223 " clip-rule="nonzero"/></clipPath><clipPath id="2b5130aa2e"><path d="M 84.933594 123.046875 L 84.933594 251.953125 C 84.933594 272.664062 101.722656 289.453125 122.433594 289.453125 L 252.566406 289.453125 C 273.277344 289.453125 290.066406 272.664062 290.066406 251.953125 L 290.066406 123.046875 C 290.066406 102.335938 273.277344 85.546875 252.566406 85.546875 L 122.433594 85.546875 C 101.722656 85.546875 84.933594 102.335938 84.933594 123.046875 Z M 84.933594 123.046875 " clip-rule="nonzero"/></clipPath><clipPath id="3d6ff687f1"><path d="M 117 220 L 151 220 L 151 253 L 117 253 Z M 117 220 " clip-rule="nonzero"/></clipPath><clipPath id="26b1034aae"><path d="M 84.933594 123.046875 L 84.933594 251.953125 C 84.933594 272.664062 101.722656 289.453125 122.433594 289.453125 L 252.566406 289.453125 C 273.277344 289.453125 290.066406 272.664062 290.066406 251.953125 L 290.066406 123.046875 C 290.066406 102.335938 273.277344 85.546875 252.566406 85.546875 L 122.433594 85.546875 C 101.722656 85.546875 84.933594 102.335938 84.933594 123.046875 Z M 84.933594 123.046875 " clip-rule="nonzero"/></clipPath><clipPath id="724afdc21a"><path d="M 139 139 L 228 139 L 228 222 L 139 222 Z M 139 139 " clip-rule="nonzero"/></clipPath><clipPath id="3972ce8c5f"><path d="M 84.933594 123.046875 L 84.933594 251.953125 C 84.933594 272.664062 101.722656 289.453125 122.433594 289.453125 L 252.566406 289.453125 C 273.277344 289.453125 290.066406 272.664062 290.066406 251.953125 L 290.066406 123.046875 C 290.066406 102.335938 273.277344 85.546875 252.566406 85.546875 L 122.433594 85.546875 C 101.722656 85.546875 84.933594 102.335938 84.933594 123.046875 Z M 84.933594 123.046875 " clip-rule="nonzero"/></clipPath></defs><g clip-path="url(#950a287dc5)"><g clip-path="url(#f67e66edaf)"><path fill="#27d045" d="M 348.597656 181.152344 C 348.597656 183.851562 348.53125 186.550781 348.398438 189.246094 C 348.265625 191.945312 348.066406 194.636719 347.800781 197.324219 C 347.535156 200.011719 347.207031 202.691406 346.808594 205.363281 C 346.414062 208.03125 345.953125 210.691406 345.425781 213.339844 C 344.898438 215.988281 344.308594 218.625 343.652344 221.242188 C 342.996094 223.863281 342.273438 226.464844 341.492188 229.046875 C 340.707031 231.632812 339.859375 234.195312 338.949219 236.738281 C 338.042969 239.28125 337.070312 241.800781 336.035156 244.292969 C 335.003906 246.789062 333.910156 249.257812 332.753906 251.699219 C 331.601562 254.136719 330.386719 256.550781 329.113281 258.929688 C 327.839844 261.3125 326.507812 263.660156 325.121094 265.976562 C 323.734375 268.292969 322.289062 270.574219 320.789062 272.820312 C 319.289062 275.066406 317.734375 277.273438 316.125 279.441406 C 314.515625 281.609375 312.855469 283.738281 311.144531 285.824219 C 309.429688 287.914062 307.667969 289.957031 305.851562 291.957031 C 304.039062 293.957031 302.179688 295.914062 300.269531 297.824219 C 298.359375 299.734375 296.402344 301.59375 294.402344 303.40625 C 292.402344 305.222656 290.359375 306.984375 288.269531 308.699219 C 286.183594 310.410156 284.054688 312.070312 281.886719 313.679688 C 279.71875 315.289062 277.511719 316.84375 275.265625 318.34375 C 273.019531 319.84375 270.738281 321.289062 268.421875 322.675781 C 266.105469 324.0625 263.757812 325.394531 261.375 326.667969 C 258.996094 327.941406 256.582031 329.15625 254.144531 330.308594 C 251.703125 331.464844 249.234375 332.558594 246.738281 333.589844 C 244.242188 334.625 241.726562 335.597656 239.183594 336.503906 C 236.640625 337.414062 234.078125 338.261719 231.492188 339.046875 C 228.910156 339.828125 226.308594 340.550781 223.6875 341.207031 C 221.066406 341.863281 218.433594 342.453125 215.785156 342.980469 C 213.136719 343.507812 210.476562 343.96875 207.804688 344.363281 C 205.136719 344.761719 202.457031 345.089844 199.769531 345.355469 C 197.082031 345.621094 194.390625 345.820312 191.691406 345.953125 C 188.996094 346.085938 186.296875 346.152344 183.597656 346.152344 C 180.894531 346.152344 178.195312 346.085938 175.5 345.953125 C 172.804688 345.820312 170.109375 345.621094 167.421875 345.355469 C 164.734375 345.089844 162.054688 344.761719 159.386719 344.363281 C 156.714844 343.96875 154.054688 343.507812 151.40625 342.980469 C 148.757812 342.453125 146.125 341.863281 143.503906 341.207031 C 140.886719 340.550781 138.28125 339.828125 135.699219 339.046875 C 133.113281 338.261719 130.550781 337.414062 128.007812 336.503906 C 125.464844 335.597656 122.949219 334.625 120.453125 333.589844 C 117.957031 332.558594 115.492188 331.464844 113.050781 330.308594 C 110.609375 329.15625 108.195312 327.941406 105.816406 326.667969 C 103.433594 325.394531 101.085938 324.0625 98.769531 322.675781 C 96.453125 321.289062 94.171875 319.84375 91.925781 318.34375 C 89.683594 316.84375 87.472656 315.289062 85.304688 313.679688 C 83.136719 312.070312 81.007812 310.410156 78.921875 308.699219 C 76.832031 306.984375 74.789062 305.222656 72.789062 303.40625 C 70.789062 301.59375 68.832031 299.734375 66.921875 297.824219 C 65.015625 295.914062 63.152344 293.957031 61.339844 291.957031 C 59.527344 289.957031 57.761719 287.914062 56.050781 285.824219 C 54.335938 283.738281 52.675781 281.609375 51.066406 279.441406 C 49.457031 277.273438 47.902344 275.066406 46.402344 272.820312 C 44.902344 270.574219 43.460938 268.292969 42.070312 265.976562 C 40.683594 263.660156 39.351562 261.3125 38.078125 258.929688 C 36.804688 256.550781 35.59375 254.136719 34.4375 251.699219 C 33.285156 249.257812 32.1875 246.789062 31.15625 244.292969 C 30.121094 241.800781 29.152344 239.28125 28.242188 236.738281 C 27.332031 234.195312 26.484375 231.632812 25.699219 229.046875 C 24.917969 226.464844 24.195312 223.863281 23.539062 221.242188 C 22.882812 218.625 22.292969 215.988281 21.765625 213.339844 C 21.238281 210.691406 20.777344 208.03125 20.382812 205.363281 C 19.984375 202.691406 19.65625 200.011719 19.390625 197.324219 C 19.125 194.636719 18.925781 191.945312 18.792969 189.246094 C 18.664062 186.550781 18.597656 183.851562 18.597656 181.152344 C 18.597656 178.449219 18.664062 175.75 18.792969 173.054688 C 18.925781 170.359375 19.125 167.664062 19.390625 164.976562 C 19.65625 162.289062 19.984375 159.613281 20.382812 156.941406 C 20.777344 154.269531 21.238281 151.609375 21.765625 148.960938 C 22.292969 146.3125 22.882812 143.679688 23.539062 141.058594 C 24.195312 138.441406 24.917969 135.839844 25.699219 133.253906 C 26.484375 130.667969 27.332031 128.105469 28.242188 125.5625 C 29.152344 123.023438 30.121094 120.503906 31.15625 118.007812 C 32.1875 115.511719 33.285156 113.046875 34.4375 110.605469 C 35.59375 108.164062 36.804688 105.75 38.078125 103.371094 C 39.351562 100.988281 40.683594 98.640625 42.070312 96.324219 C 43.460938 94.007812 44.902344 91.726562 46.402344 89.480469 C 47.902344 87.238281 49.457031 85.03125 51.066406 82.859375 C 52.675781 80.691406 54.335938 78.5625 56.050781 76.476562 C 57.761719 74.386719 59.527344 72.34375 61.339844 70.34375 C 63.152344 68.34375 65.015625 66.386719 66.921875 64.476562 C 68.832031 62.570312 70.789062 60.707031 72.789062 58.894531 C 74.789062 57.082031 76.832031 55.316406 78.921875 53.605469 C 81.007812 51.890625 83.136719 50.230469 85.304688 48.621094 C 87.472656 47.011719 89.683594 45.457031 91.925781 43.957031 C 94.171875 42.457031 96.453125 41.015625 98.769531 39.625 C 101.085938 38.238281 103.433594 36.90625 105.816406 35.632812 C 108.195312 34.359375 110.609375 33.148438 113.050781 31.992188 C 115.492188 30.839844 117.957031 29.746094 120.453125 28.710938 C 122.949219 27.675781 125.464844 26.707031 128.007812 25.796875 C 130.550781 24.886719 133.113281 24.039062 135.699219 23.253906 C 138.28125 22.472656 140.886719 21.75 143.503906 21.097656 C 146.125 20.441406 148.757812 19.847656 151.40625 19.320312 C 154.054688 18.792969 156.714844 18.332031 159.386719 17.9375 C 162.054688 17.539062 164.734375 17.210938 167.421875 16.945312 C 170.109375 16.679688 172.804688 16.480469 175.5 16.351562 C 178.195312 16.21875 180.894531 16.152344 183.597656 16.152344 C 186.296875 16.152344 188.996094 16.21875 191.691406 16.351562 C 194.390625 16.480469 197.082031 16.679688 199.769531 16.945312 C 202.457031 17.210938 205.136719 17.539062 207.804688 17.9375 C 210.476562 18.332031 213.136719 18.792969 215.785156 19.320312 C 218.433594 19.847656 221.066406 20.441406 223.6875 21.097656 C 226.308594 21.75 228.910156 22.472656 231.492188 23.253906 C 234.078125 24.039062 236.640625 24.886719 239.183594 25.796875 C 241.726562 26.707031 244.242188 27.675781 246.738281 28.710938 C 249.234375 29.746094 251.703125 30.839844 254.144531 31.992188 C 256.582031 33.148438 258.996094 34.359375 261.375 35.632812 C 263.757812 36.90625 266.105469 38.238281 268.421875 39.625 C 270.738281 41.015625 273.019531 42.457031 275.265625 43.957031 C 277.511719 45.457031 279.71875 47.011719 281.886719 48.621094 C 284.054688 50.230469 286.183594 51.890625 288.269531 53.605469 C 290.359375 55.316406 292.402344 57.082031 294.402344 58.894531 C 296.402344 60.707031 298.359375 62.570312 300.269531 64.476562 C 302.179688 66.386719 304.039062 68.34375 305.851562 70.34375 C 307.667969 72.34375 309.429688 74.386719 311.144531 76.476562 C 312.855469 78.5625 314.515625 80.691406 316.125 82.859375 C 317.734375 85.03125 319.289062 87.238281 320.789062 89.480469 C 322.289062 91.726562 323.734375 94.007812 325.121094 96.324219 C 326.507812 98.640625 327.839844 100.988281 329.113281 103.371094 C 330.386719 105.75 331.601562 108.164062 332.753906 110.605469 C 333.910156 113.046875 335.003906 115.511719 336.035156 118.007812 C 337.070312 120.503906 338.042969 123.023438 338.949219 125.5625 C 339.859375 128.105469 340.707031 130.667969 341.492188 133.253906 C 342.273438 135.839844 342.996094 138.441406 343.652344 141.058594 C 344.308594 143.679688 344.898438 146.3125 345.425781 148.960938 C 345.953125 151.609375 346.414062 154.269531 346.808594 156.941406 C 347.207031 159.613281 347.535156 162.289062 347.800781 164.976562 C 348.066406 167.664062 348.265625 170.359375 348.398438 173.054688 C 348.53125 175.75 348.597656 178.449219 348.597656 181.152344 Z M 348.597656 181.152344 " fill-opacity="1" fill-rule="nonzero"/><path stroke-linecap="butt" transform="matrix(2.75, 0, 0, 2.75, 98.346034, 93.150894)" fill="none" stroke-linejoin="miter" d="M 60.50059 31.500527 C 60.50059 31.974959 60.487806 32.449391 60.465079 32.922402 C 60.442352 33.396834 60.40684 33.869846 60.359965 34.342857 C 60.314511 34.814448 60.256272 35.286039 60.18667 35.754789 C 60.117068 36.224959 60.034681 36.692289 59.942352 37.158198 C 59.850022 37.622687 59.746329 38.085755 59.631272 38.545982 C 59.516215 39.006209 59.388374 39.463596 59.25059 39.918141 C 59.112806 40.372687 58.965079 40.822971 58.804568 41.270414 C 58.645477 41.716437 58.473602 42.159618 58.293204 42.597118 C 58.111386 43.036039 57.918204 43.470698 57.715079 43.899675 C 57.513374 44.328653 57.298886 44.751948 57.075874 45.170982 C 56.851443 45.588596 56.618488 46.001948 56.37417 46.409618 C 56.129852 46.815868 55.87559 47.216437 55.612806 47.611323 C 55.348602 48.006209 55.075874 48.393993 54.793204 48.774675 C 54.510533 49.156778 54.21792 49.530357 53.916783 49.896834 C 53.615647 50.264732 53.305988 50.624107 52.987806 50.974959 C 52.668204 51.327232 52.341499 51.670982 52.006272 52.006209 C 51.671045 52.341437 51.327295 52.668141 50.975022 52.987744 C 50.62417 53.305925 50.264795 53.615584 49.896897 53.916721 C 49.53042 54.217857 49.15684 54.510471 48.774738 54.793141 C 48.394056 55.075812 48.006272 55.348539 47.611386 55.612744 C 47.216499 55.876948 46.815931 56.129789 46.409681 56.374107 C 46.002011 56.618425 45.588658 56.85138 45.171045 57.075812 C 44.752011 57.298823 44.328715 57.513312 43.899738 57.715016 C 43.470761 57.918141 43.036102 58.111323 42.597181 58.293141 C 42.159681 58.473539 41.716499 58.645414 41.270477 58.804505 C 40.823033 58.965016 40.372749 59.114164 39.918204 59.251948 C 39.463658 59.389732 39.006272 59.516153 38.546045 59.631209 C 38.085817 59.746266 37.622749 59.849959 37.158261 59.942289 C 36.692352 60.036039 36.225022 60.117005 35.754852 60.186607 C 35.286102 60.256209 34.814511 60.314448 34.34292 60.359903 C 33.869908 60.406778 33.396897 60.442289 32.922465 60.465016 C 32.449454 60.487744 31.975022 60.500528 31.50059 60.500528 C 31.024738 60.500528 30.551726 60.487744 30.077295 60.465016 C 29.602863 60.442289 29.129851 60.406778 28.65684 60.359903 C 28.185249 60.314448 27.713658 60.256209 27.244908 60.186607 C 26.774738 60.117005 26.307408 60.036039 25.84292 59.942289 C 25.377011 59.849959 24.913942 59.746266 24.453715 59.631209 C 23.993488 59.516153 23.536101 59.389732 23.081556 59.251948 C 22.627011 59.114164 22.176726 58.965016 21.730704 58.804505 C 21.283261 58.645414 20.840079 58.473539 20.402579 58.293141 C 19.963658 58.111323 19.53042 57.918141 19.101442 57.715016 C 18.672465 57.513312 18.247749 57.298823 17.830135 57.075812 C 17.411101 56.85138 16.997749 56.618425 16.591499 56.374107 C 16.183829 56.129789 15.78326 55.876948 15.388374 55.612744 C 14.993488 55.348539 14.605704 55.075812 14.225022 54.793141 C 13.84292 54.510471 13.46934 54.217857 13.102863 53.916721 C 12.736385 53.615584 12.37701 53.305925 12.024738 52.987744 C 11.672465 52.668141 11.330135 52.341437 10.993488 52.006209 C 10.65826 51.670982 10.331556 51.327232 10.011954 50.974959 C 9.693772 50.624107 9.384113 50.264732 9.082976 49.896834 C 8.78184 49.530357 8.489226 49.156778 8.206556 48.774675 C 7.923885 48.393993 7.651158 48.006209 7.386954 47.611323 C 7.124169 47.216437 6.869908 46.815868 6.62559 46.409618 C 6.381272 46.001948 6.148317 45.588596 5.923885 45.170982 C 5.700874 44.751948 5.487806 44.328653 5.284681 43.899675 C 5.081556 43.470698 4.889794 43.036039 4.707976 42.597118 C 4.526158 42.159618 4.355704 41.716437 4.195192 41.270414 C 4.034681 40.822971 3.886954 40.372687 3.749169 39.918141 C 3.611385 39.463596 3.484965 39.006209 3.368488 38.545982 C 3.253431 38.085755 3.149738 37.622687 3.057408 37.158198 C 2.965079 36.692289 2.884113 36.224959 2.81451 35.754789 C 2.744908 35.286039 2.686669 34.814448 2.639794 34.342857 C 2.592919 33.869846 2.558829 33.396834 2.534681 32.922402 C 2.511954 32.449391 2.50059 31.974959 2.50059 31.500527 C 2.50059 31.026096 2.511954 30.551664 2.534681 30.077232 C 2.558829 29.6028 2.592919 29.129789 2.639794 28.658198 C 2.686669 28.185187 2.744908 27.713596 2.81451 27.244846 C 2.884113 26.774675 2.965079 26.307346 3.057408 25.842857 C 3.149738 25.376948 3.253431 24.91388 3.368488 24.453652 C 3.484965 23.993425 3.611385 23.536039 3.749169 23.081493 C 3.886954 22.626948 4.034681 22.176664 4.195192 21.730641 C 4.355704 21.283198 4.526158 20.840016 4.707976 20.402516 C 4.889794 19.963596 5.081556 19.530357 5.284681 19.10138 C 5.487806 18.672402 5.700874 18.247686 5.923885 17.830073 C 6.148317 17.411039 6.381272 16.997686 6.62559 16.591436 C 6.869908 16.183766 7.124169 15.783198 7.386954 15.388311 C 7.651158 14.993425 7.923885 14.605641 8.206556 14.224959 C 8.489226 13.842857 8.78184 13.469277 9.082976 13.1028 C 9.384113 12.736323 9.693772 12.376948 10.011954 12.024675 C 10.331556 11.673823 10.65826 11.330073 10.993488 10.993425 C 11.330135 10.658198 11.672465 10.331493 12.024738 10.011891 C 12.37701 9.693709 12.736385 9.38405 13.102863 9.082914 C 13.46934 8.781777 13.84292 8.489164 14.225022 8.206493 C 14.605704 7.923823 14.993488 7.651095 15.388374 7.386891 C 15.78326 7.124107 16.183829 6.869845 16.591499 6.625527 C 16.997749 6.381209 17.411101 6.148255 17.830135 5.923823 C 18.247749 5.700811 18.672465 5.487743 19.101442 5.284618 C 19.53042 5.081493 19.963658 4.889732 20.402579 4.707914 C 20.840079 4.526095 21.283261 4.355641 21.730704 4.19513 C 22.176726 4.036039 22.627011 3.886891 23.081556 3.749107 C 23.536101 3.611323 23.993488 3.484902 24.453715 3.368425 C 24.913942 3.253368 25.377011 3.149675 25.84292 3.057345 C 26.307408 2.965016 26.774738 2.88405 27.244908 2.814448 C 27.713658 2.744845 28.185249 2.686607 28.65684 2.639732 C 29.129851 2.592857 29.602863 2.558766 30.077295 2.534618 C 30.551726 2.511891 31.024738 2.500527 31.50059 2.500527 C 31.975022 2.500527 32.449454 2.511891 32.922465 2.534618 C 33.396897 2.558766 33.869908 2.592857 34.34292 2.639732 C 34.814511 2.686607 35.286102 2.744845 35.754852 2.814448 C 36.225022 2.88405 36.692352 2.965016 37.158261 3.057345 C 37.622749 3.149675 38.085817 3.253368 38.546045 3.368425 C 39.006272 3.484902 39.463658 3.611323 39.918204 3.749107 C 40.372749 3.886891 40.823033 4.036039 41.270477 4.19513 C 41.716499 4.355641 42.159681 4.526095 42.597181 4.707914 C 43.036102 4.889732 43.470761 5.081493 43.899738 5.284618 C 44.328715 5.487743 44.752011 5.700811 45.171045 5.923823 C 45.588658 6.148255 46.002011 6.381209 46.409681 6.625527 C 46.815931 6.869845 47.216499 7.124107 47.611386 7.386891 C 48.006272 7.651095 48.394056 7.923823 48.774738 8.206493 C 49.15684 8.489164 49.53042 8.781777 49.896897 9.082914 C 50.264795 9.38405 50.62417 9.693709 50.975022 10.011891 C 51.327295 10.331493 51.671045 10.658198 52.006272 10.993425 C 52.341499 11.330073 52.668204 11.673823 52.987806 12.024675 C 53.305988 12.376948 53.615647 12.736323 53.916783 13.1028 C 54.21792 13.469277 54.510533 13.842857 54.793204 14.224959 C 55.075874 14.605641 55.348602 14.993425 55.612806 15.388311 C 55.87559 15.783198 56.129852 16.183766 56.37417 16.591436 C 56.618488 16.997686 56.851443 17.411039 57.075874 17.830073 C 57.298886 18.247686 57.513374 18.672402 57.715079 19.10138 C 57.918204 19.530357 58.111386 19.963596 58.293204 20.402516 C 58.473602 20.840016 58.645477 21.283198 58.804568 21.730641 C 58.965079 22.176664 59.112806 22.626948 59.25059 23.081493 C 59.388374 23.536039 59.516215 23.993425 59.631272 24.453652 C 59.746329 24.91388 59.850022 25.376948 59.942352 25.842857 C 60.034681 26.307346 60.117068 26.774675 60.18667 27.244846 C 60.256272 27.713596 60.314511 28.185187 60.359965 28.658198 C 60.40684 29.129789 60.442352 29.6028 60.465079 30.077232 C 60.487806 30.551664 60.50059 31.026096 60.50059 31.500527 Z M 60.50059 31.500527 " stroke="#ffffff" stroke-width="5" stroke-opacity="1" stroke-miterlimit="4"/></g></g><g clip-path="url(#3e03ead2ff)"><g clip-path="url(#2b5130aa2e)"><path fill="#ffffff" d="M 112.097656 225.152344 L 99.445312 269.976562 L 145.921875 257.050781 L 148.398438 242.75 L 118.148438 252.375 L 126.121094 223.5 Z M 112.097656 225.152344 " fill-opacity="1" fill-rule="nonzero"/></g></g><g clip-path="url(#3d6ff687f1)"><g clip-path="url(#26b1034aae)"><path fill="#27d045" d="M 117.597656 252.652344 C 117.597656 252.375 127.222656 220.476562 127.222656 220.476562 L 150.320312 242.199219 Z M 117.597656 252.652344 " fill-opacity="1" fill-rule="nonzero"/></g></g><g clip-path="url(#724afdc21a)"><g clip-path="url(#3972ce8c5f)"><path fill="#ffffff" d="M 150.507812 140.265625 C 149.105469 141.242188 147.808594 142.34375 146.625 143.574219 C 145.4375 144.804688 144.386719 146.140625 143.464844 147.578125 C 142.546875 149.019531 141.773438 150.535156 141.15625 152.128906 C 140.535156 153.71875 140.078125 155.359375 139.785156 157.042969 C 138.410156 167.765625 145.007812 178.765625 145.007812 178.765625 C 151.730469 188.769531 159.613281 197.75 168.660156 205.714844 C 176.601562 212.003906 185.402344 216.679688 195.058594 219.742188 C 197.851562 220.855469 200.746094 221.554688 203.738281 221.835938 C 206.734375 222.117188 209.707031 221.96875 212.660156 221.390625 C 215.273438 220.671875 217.710938 219.5625 219.96875 218.058594 C 222.226562 216.550781 224.1875 214.730469 225.859375 212.589844 C 226.644531 210.640625 227.195312 208.621094 227.507812 206.542969 C 227.824219 204.707031 227.824219 202.875 227.507812 201.042969 C 227.234375 199.117188 207.433594 190.042969 205.507812 190.589844 C 203.582031 191.140625 201.933594 194.714844 199.734375 197.742188 C 197.535156 200.765625 196.707031 202.140625 194.507812 202.140625 C 192.308594 202.140625 182.683594 198.292969 173.609375 190.042969 C 171.015625 187.792969 168.722656 185.277344 166.722656 182.488281 C 164.726562 179.699219 163.078125 176.71875 161.785156 173.542969 C 161.785156 173.542969 163.433594 171.617188 165.632812 168.589844 C 167.371094 166.6875 168.5625 164.488281 169.207031 161.992188 C 169.207031 160.617188 161.507812 141.089844 159.582031 140.265625 C 156.558594 139.839844 153.535156 139.839844 150.507812 140.265625 Z M 150.507812 140.265625 " fill-opacity="1" fill-rule="nonzero"/></g></g></svg>